# Made in Blockbench 5.1.5
mtllib model.mtl

o display
v -0.0062500000000000056 0.03125 0.415625
v -0.0062500000000000056 0.03125 -0.384375
v -0.11875 0.03125 0.415625
v -0.11875 0.03125 -0.384375
v -0.13124999999999998 0.03125 0.42812500000000003
v -0.13124999999999998 0 0.42812500000000003
v 0.006249999999999992 0 0.42812500000000003
v 0.006249999999999992 0.03125 0.42812500000000003
v 0.006249999999999992 0.03125 -0.39687500000000003
v 0.006249999999999992 0 -0.39687500000000003
v -0.13124999999999998 0 -0.39687500000000003
v -0.13124999999999998 0.03125 -0.39687500000000003
v -0.11875 0.04062500000000002 0.42812500000000003
v -0.0062500000000000056 0.04062500000000002 0.42812500000000003
v -0.0062500000000000056 0.04062500000000002 0.415625
v -0.11875 0.04062500000000002 0.415625
v -0.13124999999999998 0.04062500000000002 0.42812500000000003
v -0.13124999999999998 0.04062500000000002 0.415625
v -0.13124999999999998 0.04062500000000002 -0.384375
v -0.11875 0.04062500000000002 -0.384375
v 0.006249999999999992 0.04062500000000002 0.42812500000000003
v 0.006249999999999992 0.04062500000000002 0.415625
v 0.006249999999999992 0.04062500000000002 -0.384375
v -0.0062500000000000056 0.04062500000000002 -0.384375
v 0.006249999999999992 0.04062500000000002 -0.39687500000000003
v -0.0062500000000000056 0.04062500000000002 -0.39687500000000003
v -0.11875 0.04062500000000002 -0.39687500000000003
v -0.13124999999999998 0.04062500000000002 -0.39687500000000003
vt 0.48214159200370904 0.17198038718922448
vt 0.5933438964188722 0.17198038718922448
vt 0.5933438964188722 0.9627523296970516
vt 0.48214159200370904 0.9627523296970516
vt 0.16184156672182065 0.17198038718922448
vt 0.16184156672182062 0.9627523296970516
vt 0.14948575512013582 0.9627523296970516
vt 0.14948575512013587 0.17198038718922448
vt 0.00739392170076064 0.9627523296970516
vt 0.00739392170076064 0.17198038718922448
vt 0.01974973330244545 0.17198038718922448
vt 0.01974973330244545 0.9627523296970516
vt 0.4587038748075426 0.16677007922820142
vt 0.4587038748075426 0.19765960823241369
vt 0.3227899471890098 0.19765960823241369
vt 0.3227899471890098 0.16677007922820142
vt 0.016660780402024223 0.1503577168862762
vt 0.02901659200370902 0.1503577168862762
vt 0.02901659200370902 0.16271352848796095
vt 0.016660780402024223 0.16271352848796095
vt 0.02901659200370902 0.1503577168862762
vt 0.14021889641887222 0.1503577168862762
vt 0.14021889641887222 0.16271352848796095
vt 0.02901659200370902 0.16271352848796095
vt 0.14021889641887222 0.1503577168862762
vt 0.15257470802055698 0.1503577168862762
vt 0.15257470802055698 0.16271352848796095
vt 0.14021889641887222 0.16271352848796095
vt 0.8319700460829493 0.012380707224631915
vt 0.8319700460829493 0.04327023622884418
vt 0.016486480371752814 0.04327023622884485
vt 0.016486480371752814 0.012380707224632914
vt 0.016105983047743723 0.10429741996016206
vt 0.016105983047743723 0.0734078909559499
vt 0.8315895487589403 0.07340789095594946
vt 0.8315895487589403 0.1042974199601614
vt 0.02901659200370902 0.16271352848796095
vt 0.14021889641887222 0.16271352848796095
vt 0.14021889641887222 0.17198038718922448
vt 0.02901659200370902 0.17198038718922448
vt 0.01974973330244545 0.9627523296970516
vt 0.019749733302445394 0.17198038718922448
vt 0.029016592003709013 0.17198038718922448
vt 0.02901659200370906 0.9627523296970516
vt 0.14948575512013587 0.17198038718922448
vt 0.14948575512013582 0.9627523296970516
vt 0.14021889641887217 0.9627523296970516
vt 0.14021889641887222 0.17198038718922448
vt 0.8319700460829493 0.04327023622884418
vt 0.8319700460829493 0.05253709493010783
vt 0.016486480371752814 0.0525370949301085
vt 0.016486480371752814 0.04327023622884485
vt 0.14021889641887222 0.9720191883983152
vt 0.029016592003709034 0.9720191883983152
vt 0.029016592003709034 0.9627523296970516
vt 0.14021889641887222 0.9627523296970516
vt 0.4587038748075426 0.19765960823241335
vt 0.4587038748075426 0.206926466933677
vt 0.3227899471890098 0.20692646693367733
vt 0.3227899471890098 0.19765960823241369
vt 0.8315895487589403 0.11356427866142482
vt 0.016105983047743723 0.11356427866142582
vt 0.016105983047743723 0.10429741996016206
vt 0.8315895487589403 0.10429741996016106
vt 0.32009930061046027 0.1975129399135891
vt 0.32009930061046027 0.20677979861485263
vt 0.18418537299192755 0.20677979861485263
vt 0.18418537299192755 0.1975129399135891
vt 0.32009930061046027 0.16662341090937716
vt 0.32009930061046027 0.1975129399135891
vt 0.18418537299192755 0.1975129399135891
vt 0.18418537299192755 0.16662341090937716
vt 0.14021889641887222 0.984375
vt 0.029016592003709034 0.984375
vt 0.029016592003709034 0.9720191883983152
vt 0.14021889641887222 0.9720191883983152
vt 0.15257470802055703 0.984375
vt 0.14021889641887222 0.984375
vt 0.14021889641887222 0.9720191883983152
vt 0.15257470802055703 0.9720191883983152
vt 0.029016592003709034 0.984375
vt 0.016660780402024233 0.984375
vt 0.016660780402024233 0.9720191883983152
vt 0.029016592003709034 0.9720191883983152
vn 0 1 0
vn 0 1 0
vn 0 1 0
vn 0 0 -1
vn 0 1 0
vn 0 1 0
vn 0 1 0
vn 1 0 0
vn -1 0 0
vn 0 0 -1
vn 1 0 0
vn -1 0 0
vn 1 0 0
vn 0 0 1
vn 0 0 -1
vn -1 0 0
vn 0 0 1
vn 0 0 1
vn 0 1 0
vn 0 1 0
vn 0 1 0
usemtl none
f 3/1/1 1/2/1 2/3/1 4/4/1
f 22/5/2 23/6/2 24/7/2 15/8/2
f 19/9/3 18/10/3 16/11/3 20/12/3
f 11/13/4 12/14/4 9/15/4 10/16/4
f 17/17/5 13/18/5 16/19/5 18/20/5
f 13/21/6 14/22/6 15/23/6 16/24/6
f 14/25/7 21/26/7 22/27/7 15/28/7
f 10/29/8 9/30/8 8/31/8 7/32/8
f 12/33/9 11/34/9 6/35/9 5/36/9
f 16/37/10 15/38/10 1/39/10 3/40/10
f 20/41/11 16/42/11 3/43/11 4/44/11
f 15/45/12 24/46/12 2/47/12 1/48/12
f 9/49/13 25/50/13 21/51/13 8/52/13
f 24/53/14 20/54/14 4/55/14 2/56/14
f 12/57/15 28/58/15 25/59/15 9/60/15
f 17/61/16 28/62/16 12/63/16 5/64/16
f 8/65/17 21/66/17 17/67/17 5/68/17
f 7/69/18 8/70/18 5/71/18 6/72/18
f 26/73/19 27/74/19 20/75/19 24/76/19
f 25/77/20 26/78/20 24/79/20 23/80/20
f 27/81/21 28/82/21 19/83/21 20/84/21